HIERARCHY
ROOT Hips
{
	OFFSET 59.970299 -6.384315 92.725800
	CHANNELS 6 Xposition Yposition Zposition Xrotation Yrotation Zrotation
	JOINT spine
	{
		OFFSET 0.000000 -0.429886 7.475601
		CHANNELS 3 Xrotation Yrotation Zrotation
		JOINT spine1
		{
			OFFSET 0.000000 -0.000002 9.923012
			CHANNELS 3 Xrotation Yrotation Zrotation
			JOINT spine2
			{
				OFFSET 0.000000 -0.000001 9.508041
				CHANNELS 3 Xrotation Yrotation Zrotation
				JOINT Neck
				{
					OFFSET 0.000000 -1.163844 24.411095
					CHANNELS 3 Xrotation Yrotation Zrotation
					JOINT Head
					{
						OFFSET 0.000000 -0.000001 7.375229
						CHANNELS 3 Xrotation Yrotation Zrotation
						End Site
						{
							OFFSET 0.000000 5.887407 17.852203
						}
					}
				}
				JOINT RightShoulder
				{
					OFFSET -4.003559 0.557467 10.267906
					CHANNELS 3 Xrotation Yrotation Zrotation
					JOINT RightArm
					{
						OFFSET 0.000000 -0.000002 13.467300
						CHANNELS 3 Xrotation Yrotation Zrotation
						JOINT RightArmRoll
						{
							OFFSET 0.000000 -0.000001 6.798584
							CHANNELS 3 Xrotation Yrotation Zrotation
							JOINT RightForeArm
							{
								OFFSET 0.000000 -0.000003 19.801804
								CHANNELS 3 Xrotation Yrotation Zrotation
								JOINT RightForeArmRoll
								{
									OFFSET 0.000000 -0.000001 7.629044
									CHANNELS 3 Xrotation Yrotation Zrotation
									JOINT RightHand
									{
										OFFSET 0.000000 -0.000002 15.309799
										CHANNELS 3 Xrotation Yrotation Zrotation
										End Site
										{
											OFFSET 0.000000 0.000000 0.100006
										}
									}
								}
							}
						}
					}
				}
				JOINT LeftShoulder
				{
					OFFSET 4.003559 0.557467 10.267906
					CHANNELS 3 Xrotation Yrotation Zrotation
					JOINT LeftArm
					{
						OFFSET 0.000000 -0.000002 13.467300
						CHANNELS 3 Xrotation Yrotation Zrotation
						JOINT LeftArmRoll
						{
							OFFSET 0.000000 -0.000001 6.798584
							CHANNELS 3 Xrotation Yrotation Zrotation
							JOINT LeftForeArm
							{
								OFFSET 0.000000 -0.000003 19.801804
								CHANNELS 3 Xrotation Yrotation Zrotation
								JOINT LeftForeArmRoll
								{
									OFFSET 0.000000 -0.000001 7.629044
									CHANNELS 3 Xrotation Yrotation Zrotation
									JOINT LeftHand
									{
										OFFSET 0.000000 -0.000002 15.309799
										CHANNELS 3 Xrotation Yrotation Zrotation
										End Site
										{
											OFFSET 0.000000 0.000000 0.100006
										}
									}
								}
							}
						}
					}
				}
			}
		}
	}
	JOINT RightUpLeg
	{
		OFFSET -6.626091 1.019270 -1.215050
		CHANNELS 3 Xrotation Yrotation Zrotation
		JOINT RightUpLegRoll
		{
			OFFSET 0.000000 -0.000003 17.951698
			CHANNELS 3 Xrotation Yrotation Zrotation
			JOINT RightLeg
			{
				OFFSET 0.000000 0.000003 -22.230400
				CHANNELS 3 Xrotation Yrotation Zrotation
				JOINT RightLegRoll
				{
					OFFSET 0.000000 -0.000003 22.303200
					CHANNELS 3 Xrotation Yrotation Zrotation
					JOINT RightFoot
					{
						OFFSET 0.000000 -0.000003 18.563599
						CHANNELS 3 Xrotation Yrotation Zrotation
						JOINT RightToeBase
						{
							OFFSET 0.000000 -0.000002 15.518295
							CHANNELS 3 Xrotation Yrotation Zrotation
							End Site
							{
								OFFSET 0.006577 0.866261 7.515381
							}
						}
					}
				}
			}
		}
	}
	JOINT LeftUpLeg
	{
		OFFSET 6.626091 1.019270 -1.215050
		CHANNELS 3 Xrotation Yrotation Zrotation
		JOINT LeftUpLegRoll
		{
			OFFSET 0.000000 -0.000003 17.951797
			CHANNELS 3 Xrotation Yrotation Zrotation
			JOINT LeftLeg
			{
				OFFSET 0.000000 -0.000004 22.230293
				CHANNELS 3 Xrotation Yrotation Zrotation
				JOINT LeftLegRoll
				{
					OFFSET 0.000000 -0.000004 22.509308
					CHANNELS 3 Xrotation Yrotation Zrotation
					JOINT LeftFoot
					{
						OFFSET 0.000000 -0.000003 18.357498
						CHANNELS 3 Xrotation Yrotation Zrotation
						JOINT LeftToeBase
						{
							OFFSET 0.000000 -0.000002 15.518295
							CHANNELS 3 Xrotation Yrotation Zrotation
							End Site
							{
								OFFSET -0.029480 0.866261 7.515396
							}
						}
					}
				}
			}
		}
	}
}
MOTION
Frames: 8
Frame Time: 0.041667
59.631298 -6.244077 92.480995 -6.600748 -1.441058 -2.550647 -0.207292 -0.035795 -0.134249 3.600343 -0.073334 -0.254585 5.245414 -0.076389 -0.253661 1.010868 16.863326 -0.914823 5.546732 -17.069896 -0.861902 -2.338067 -60.691333 -2.964882 -17.854497 -111.043481 13.085929 -0.000002 0.000001 0.000007 -0.009593 1.274380 -1.420835 0.000002 0.000007 -3.027761 -5.000135 -8.000079 0.000015 -12.180469 80.078436 15.240345 -82.743712 99.312965 52.971939 0.000000 -0.000001 -0.000001 2.307004 -1.111159 0.861891 0.000002 -0.000001 3.000012 -5.000175 8.000090 -0.000021 -9.396374 -173.562798 2.722227 -179.999991 0.000005 -1.177001 151.664446 -1.417171 -1.466093 -0.000007 -0.000001 0.477355 69.303368 6.920932 2.021362 27.449019 -7.271632 2.957328 -0.384101 -174.900108 4.649465 -0.000005 -0.000004 -1.198440 -12.086811 4.409323 0.732325 -0.000003 0.000002 -0.161832 72.278892 -7.048399 -1.438534 25.456960 7.355615 0.000000 
59.630695 -6.245185 92.482094 -6.602065 -1.439654 -2.550569 -0.207341 -0.037961 -0.134625 3.598344 -0.078701 -0.255399 5.243415 -0.081774 -0.254406 1.042734 16.892659 -0.909598 5.565822 -17.084914 -0.851513 -2.326491 -60.601099 -2.941599 -17.725630 -111.127123 13.217507 -0.000002 0.000001 0.000007 -0.009589 1.285701 -1.420833 0.000002 0.000008 -3.027758 -5.000135 -8.000078 0.000015 -12.250235 80.055131 15.313038 -82.542577 99.286717 52.802878 -0.000000 -0.000000 -0.000003 2.419809 -1.079388 0.863617 0.000001 -0.000002 3.000010 -5.000174 8.000087 -0.000021 -9.393489 -173.569655 2.715635 -179.999991 0.000005 -1.177000 151.665416 -1.411904 -1.464220 -0.000006 -0.000001 0.478061 69.308231 6.920912 2.021356 27.442862 -7.271641 2.948231 -0.375425 -174.902116 4.648288 -0.000005 -0.000004 -1.198110 -12.073389 4.410365 0.731838 -0.000003 0.000002 -0.161833 72.269412 -7.047610 -1.442110 25.456957 7.355616 -0.000000 
59.613098 -6.238554 92.488602 -6.603023 -1.437962 -2.550247 -0.207378 -0.040164 -0.135053 3.596276 -0.084207 -0.256271 5.241346 -0.087300 -0.255209 1.073899 16.921394 -0.904329 5.585319 -17.099121 -0.841109 -2.315874 -60.509944 -2.919342 -17.594277 -111.213614 13.350425 -0.000002 0.000001 0.000006 -0.009585 1.296371 -1.420831 0.000001 0.000008 -3.027762 -5.000135 -8.000078 0.000012 -12.319138 80.030904 15.384781 -82.332255 99.260626 52.625337 -0.000000 -0.000001 -0.000000 2.532836 -1.047246 0.865179 0.000001 -0.000000 3.000013 -5.000175 8.000090 -0.000019 -9.390921 -173.577496 2.708930 -179.999991 0.000005 -1.177001 151.666482 -1.406640 -1.462346 -0.000007 -0.000001 0.478792 69.313081 6.920892 2.021448 27.436498 -7.271646 2.938911 -0.367313 -174.905094 4.646880 -0.000005 -0.000004 -1.197791 -12.060265 4.411423 0.731361 -0.000003 0.000002 -0.161853 72.260150 -7.046836 -1.445471 25.456959 7.355615 -0.000000 
59.614796 -6.241216 92.486298 -6.603705 -1.436073 -2.549776 -0.207416 -0.042394 -0.135515 3.594155 -0.089811 -0.257184 5.239227 -0.092924 -0.256053 1.104567 16.949828 -0.899035 5.605099 -17.112617 -0.830687 -2.305941 -60.418078 -2.897813 -17.461652 -111.302051 13.483838 -0.000002 0.000002 0.000009 -0.009581 1.306591 -1.420830 0.000002 0.000007 -3.027761 -5.000136 -8.000078 0.000014 -12.387263 80.005967 15.455706 -82.113975 99.234705 52.440260 -0.000001 -0.000001 -0.000003 2.646007 -1.014839 0.866583 0.000001 -0.000002 3.000011 -5.000175 8.000089 -0.000021 -9.388583 -173.585351 2.702029 -179.999991 0.000005 -1.177000 151.667451 -1.401373 -1.460474 -0.000005 -0.000001 0.479542 69.317951 6.920905 2.021347 27.430026 -7.271658 2.929447 -0.359604 -174.908099 4.645303 -0.000005 -0.000004 -1.197470 -12.047344 4.412503 0.730893 -0.000004 0.000002 -0.161883 72.251025 -7.046112 -1.448735 25.456960 7.355615 0.000000 
59.624695 -6.246508 92.489799 -6.604247 -1.434065 -2.549207 -0.207453 -0.044638 -0.135998 3.592016 -0.095470 -0.258121 5.237088 -0.098605 -0.256919 1.134960 16.977859 -0.893738 5.625067 -17.125914 -0.820247 -2.296426 -60.325802 -2.876729 -17.329640 -111.390536 13.615958 -0.000002 0.000001 0.000010 -0.009574 1.316541 -1.420839 0.000002 0.000007 -3.027764 -5.000136 -8.000079 0.000012 -12.454789 79.980620 15.525983 -81.891318 99.208928 52.251183 -0.000001 -0.000000 -0.000001 2.759256 -0.982281 0.867839 0.000001 -0.000002 3.000015 -5.000176 8.000089 -0.000019 -9.386370 -173.594203 2.695185 -179.999991 0.000005 -1.177000 151.668517 -1.396107 -1.458614 -0.000006 -0.000001 0.480301 69.322711 6.920913 2.021349 27.423558 -7.271658 2.919908 -0.352122 -174.911091 4.643635 -0.000005 -0.000004 -1.197160 -12.034623 4.413593 0.730437 -0.000004 0.000002 -0.161921 72.241900 -7.045388 -1.452094 25.456957 7.355613 0.000001 
59.621395 -6.245948 92.491402 -6.604762 -1.432027 -2.548614 -0.207487 -0.046887 -0.136484 3.589866 -0.101143 -0.259064 5.234940 -0.104299 -0.257790 1.165289 17.005984 -0.888467 5.645063 -17.139002 -0.809805 -2.287063 -60.233423 -2.855805 -17.198597 -111.479137 13.746967 -0.000002 0.000000 0.000003 -0.009569 1.326421 -1.420839 0.000002 0.000007 -3.027762 -5.000134 -8.000078 0.000015 -12.521797 79.955069 15.595747 -81.666721 99.183267 52.060282 -0.000000 -0.000001 -0.000003 2.872536 -0.949685 0.868968 0.000002 -0.000001 3.000012 -5.000175 8.000090 -0.000018 -9.384198 -173.602044 2.688152 -179.999991 0.000005 -1.177001 151.669582 -1.390830 -1.456732 -0.000007 -0.000001 0.481064 69.327581 6.920926 2.021348 27.416994 -7.271663 2.910332 -0.344697 -174.914096 4.641931 -0.000005 -0.000004 -1.196849 -12.021898 4.414681 0.729979 -0.000003 0.000002 -0.161960 72.232870 -7.044654 -1.455349 25.456960 7.355614 0.000001 
59.628498 -6.243777 92.491493 -6.605338 -1.430058 -2.548061 -0.207524 -0.049128 -0.136961 3.587726 -0.106788 -0.259995 5.232799 -0.109965 -0.258651 1.195776 17.034205 -0.883244 5.664983 -17.152292 -0.799352 -2.277579 -60.141352 -2.834752 -17.068843 -111.567875 13.876981 -0.000002 0.000001 0.000007 -0.009562 1.336430 -1.420838 0.000002 0.000007 -3.027758 -5.000135 -8.000080 0.000013 -12.588722 79.929790 15.665428 -81.442725 99.157695 51.869730 0.000001 -0.000001 -0.000001 2.985765 -0.917162 0.869981 0.000001 -0.000000 3.000013 -5.000175 8.000090 -0.000019 -9.381962 -173.609912 2.681169 -179.999991 0.000005 -1.177001 151.670552 -1.385563 -1.454862 -0.000006 -0.000001 0.481822 69.332437 6.920904 2.021340 27.410533 -7.271662 2.900813 -0.337157 -174.917101 4.640277 -0.000005 -0.000004 -1.196529 -12.009076 4.415760 0.729514 -0.000003 0.000002 -0.161996 72.223745 -7.043920 -1.458609 25.456957 7.355615 -0.000000 
59.621494 -6.247166 92.432693 -6.606105 -1.428218 -2.547627 -0.207561 -0.051350 -0.137414 3.585627 -0.112364 -0.260899 5.230700 -0.115561 -0.259484 1.226618 17.062718 -0.878090 5.684698 -17.165983 -0.788892 -2.267695 -60.049582 -2.813270 -16.941475 -111.655828 14.005156 -0.000002 0.000002 0.000009 -0.009559 1.346781 -1.420833 0.000001 0.000008 -3.027760 -5.000135 -8.000078 0.000013 -12.655652 79.905003 15.735151 -81.222397 99.132177 51.682600 -0.000001 -0.000001 -0.000003 3.098890 -0.884825 0.870893 0.000002 -0.000001 3.000009 -5.000175 8.000088 -0.000020 -9.379559 -173.617753 2.674320 -179.999991 0.000005 -1.177001 151.671618 -1.381174 -1.453462 -0.000007 -0.000001 0.482567 69.337301 6.920880 2.021431 27.404058 -7.271664 2.891387 -0.329332 -174.920079 4.638748 -0.000005 -0.000004 -1.196220 -11.996155 4.416833 0.729046 -0.000003 0.000002 -0.162025 72.214504 -7.043192 -1.461976 25.456959 7.355614 -0.000000 
